HIERARCHY
ROOT pelvis
{
  OFFSET 0 100 0
  CHANNELS 6 Xposition Yposition Zposition Zrotation Xrotation Yrotation
  JOINT pelvis_right_femur
  {
    OFFSET -10.78128 -3.44521 -0.5502486
    CHANNELS 3 Zrotation Xrotation Yrotation
    JOINT right_femur_tibia
    {
      OFFSET -0.8047443 -44.0398 -0.1307829
      CHANNELS 3 Zrotation Xrotation Yrotation
      JOINT right_tibia_foot
      {
        OFFSET 3.006224 -47.83518 -5
        CHANNELS 3 Zrotation Xrotation Yrotation
        End Site
        {
          OFFSET 0 -5 15
        }
      }
    }
  }
  JOINT pelvis_left_femur
  {
    OFFSET 10.78128 -3.44521 -0.5502486
    CHANNELS 3 Zrotation Xrotation Yrotation
    JOINT left_femur_tibia
    {
      OFFSET 0.8047443 -44.0398 -0.1307829
      CHANNELS 3 Zrotation Xrotation Yrotation
      JOINT left_tibia_foot
      {
        OFFSET -4.370144 -48.10324 -4.275266
        CHANNELS 3 Zrotation Xrotation Yrotation
        End Site
        {
          OFFSET 0 -5 15
        }
      }
    }
  }
  JOINT pelvis_spine1
  {
    OFFSET 0 6.468898 -3.129235
    CHANNELS 3 Zrotation Xrotation Yrotation
    JOINT spine1
    {
      OFFSET 0 23.15396 4.99043
      CHANNELS 3 Zrotation Xrotation Yrotation
      JOINT spine2
      {
        OFFSET 0 20.79997 -5.064912
        CHANNELS 3 Zrotation Xrotation Yrotation
        JOINT neck
        {
          OFFSET 0 14.38658 9.616178
          CHANNELS 3 Zrotation Xrotation Yrotation
          End Site
          {
            OFFSET 0 20 0
          }
        }
      }
      JOINT right_manubrium
      {
        OFFSET -5.722621 16.35077 3.967754
        CHANNELS 3 Zrotation Xrotation Yrotation
        JOINT right_clavicle
        {
          OFFSET -13.16364 1.694482 -4.693211
          CHANNELS 3 Zrotation Xrotation Yrotation
          JOINT right_humerus
          {
            OFFSET -28.5034 -0.3100689 -2.792744
            CHANNELS 3 Zrotation Xrotation Yrotation
            JOINT right_radius
            {
              OFFSET -25.15693 0.02248979 -1.271978
              CHANNELS 3 Zrotation Xrotation Yrotation
              End Site
              {
                OFFSET -15 0 0
              }
            }
          }
        }
      }
      JOINT left_manubrium
      {
        OFFSET 5.722621 16.35077 3.967754
        CHANNELS 3 Zrotation Xrotation Yrotation
        JOINT left_clavicle
        {
          OFFSET 13.16364 1.694482 -4.693211
          CHANNELS 3 Zrotation Xrotation Yrotation
          JOINT left_humerus
          {
            OFFSET 29.39168 -1.063119 -2.237045
            CHANNELS 3 Zrotation Xrotation Yrotation
            JOINT left_radius
            {
              OFFSET 24.59957 -0.9528479 0.9047498
              CHANNELS 3 Zrotation Xrotation Yrotation
              End Site
              {
                OFFSET 15 -0 -0
              }
            }
          }
        }
      }
    }
  }
}
MOTION
Frames: 19
Frame Time: 0.0416666666667
878.3258 100.7394 2943.583 1.685616 -3.593909 23.018 2.733342 20.00653 1.246648 -0 14.47687 -0 -4.269849 -16.20126 -0.6412886 1.345722 -27.03391 -4.132938 -0 12.52437 -0 -4.658349 -6.517576 20.36295 -1.302948 0.1015151 7.242391 -0.2764864 8.392985 -3.229063 1.365334 22.69936 5.031064 2.202471 -18.9303 5.994641 0.7002402 -22.14537 10.55074 79.01344 27.71845 -2.106018 -0 0 22.24574 -23.85625 8.051604 16.0664 4.179914 -15.44747 -1.473209 -93.50411 22.58237 25.71992 0 0 -7.779244 0.2622955 8.387096 13.55555
882.1212 100.2733 2949.649 2.210561 -3.286457 22.54627 1.305018 21.09677 2.111289 -0 20.90709 -0 -3.793644 -11.04547 -0.3573036 -0.509786 -25.42722 -5.266799 -0 14.31466 -0 -3.930275 -6.827801 19.95717 -2.074362 -0.7457909 7.802555 -0.4878244 8.92553 -3.157998 1.568473 22.33026 4.960181 2.409628 -19.47312 5.995405 0.5914436 -22.21624 10.37942 80.21975 26.91785 -3.19231 -0 0 22.07592 -23.96966 7.352526 16.1022 3.892181 -15.33376 -1.485743 -93.85988 22.58604 26.9581 0 0 -7.078159 0.1150822 7.321721 14.321
886.1132 100.4371 2955.983 3.094912 -3.244028 22.50942 -0.04323048 20.38924 3.032145 -0 29.44055 -0 -3.5118 -4.174704 -0.6645028 -2.64312 -22.60637 -6.447924 -0 17.54831 -0 -3.001896 -7.643009 19.55622 -3.050874 -1.351426 7.999476 -0.7563367 9.636051 -3.192622 1.831926 22.09831 4.808625 2.597365 -19.89866 5.985511 0.7583144 -21.87334 10.37003 81.86596 26.42708 -4.902846 -0 0 21.10001 -23.80196 7.028507 15.76004 3.565266 -15.45295 -1.793799 -93.78507 22.96827 27.38661 0 0 -7.117912 0.03125974 6.546973 15.01365
890.0839 101.2569 2962.281 3.999719 -3.620623 23.05191 -0.8585379 17.64324 3.652658 -0 39.7688 -0 -3.428321 2.727408 -1.560863 -4.468187 -18.48246 -7.234243 -0 20.31325 -0 -1.981277 -8.782407 19.11601 -3.884075 -1.615179 7.568076 -0.8813435 10.51527 -3.546725 1.930357 22.00037 4.686371 2.637217 -20.19336 5.917183 1.186147 -21.33242 10.61746 83.76288 25.93551 -7.030975 -0 0 19.48491 -23.41208 6.898805 15.28536 3.140237 -15.88467 -2.4129 -93.06371 23.38998 26.7498 0 0 -7.736289 0.08521912 5.990456 15.36071
893.8439 102.6399 2968.216 4.572733 -4.33677 24.118 -0.9135369 12.61689 3.836555 -0 49.90867 -0 -3.564107 7.899275 -2.83201 -5.576418 -13.20826 -7.437064 -0 21.46813 -0 -0.8830459 -10.09547 18.61039 -4.326592 -1.524087 6.483318 -0.616931 11.51948 -4.428089 1.670942 21.96581 4.803079 2.538186 -20.45318 5.807914 1.872607 -20.76919 11.18013 85.59205 25.54869 -9.494586 -0 0 17.3579 -22.99576 6.999832 14.94405 2.664541 -16.79361 -3.253144 -91.5664 23.45266 24.89784 0 0 -9.013525 0.3626169 5.581338 15.06266
897.2978 104.2457 2973.573 4.628482 -5.077622 25.42235 -0.3374968 5.668375 3.754383 -0 56.15634 -0 -3.827498 9.990504 -4.15254 -5.883957 -7.515326 -7.320673 -0 20.5563 -0 0.1556549 -11.62213 18.15651 -4.305816 -1.147602 5.093314 0.07219693 12.35696 -5.726886 1.132599 21.9089 5.239147 2.414224 -20.70634 5.77111 2.584936 -20.28668 11.85113 87.00866 25.4263 -12.04823 -0 0 15.22122 -22.63754 7.367123 14.76034 2.38908 -18.07866 -4.079 -89.69498 23.12353 22.21932 0 0 -10.96276 0.6805074 5.306185 14.304
900.4657 105.6224 2978.379 4.273756 -5.549929 26.67144 0.4823586 -2.030486 3.597955 -0 56.53441 -0 -4.123005 9.299752 -5.242828 -5.663483 -2.250159 -7.290246 -0 18.18772 -0 0.7724416 -13.43172 17.73395 -3.93553 -0.6251643 3.870337 0.8927819 12.69444 -7.004826 0.6452435 21.82984 5.782789 2.338488 -20.89398 5.900185 2.922168 -19.8763 12.25648 88.02498 25.32502 -14.36793 -0 0 13.62004 -22.1433 7.755137 14.45077 2.537165 -19.38583 -4.662302 -88.08938 22.81836 19.45637 0 0 -13.32338 0.8394697 5.227743 13.61599
903.3934 106.4203 2982.798 3.66799 -5.654394 27.7051 1.254199 -9.827958 3.314693 -0 51.71471 -0 -4.525115 7.098304 -6.021843 -5.217633 2.486475 -7.450033 -0 15.30559 -0 0.7647016 -15.56957 17.11042 -3.407792 -0.07525282 2.94419 1.630289 12.48163 -8.041079 0.4001349 21.76252 6.231493 2.310724 -21.04047 6.184585 2.749213 -19.41598 12.26815 88.88438 24.99212 -16.45106 -0 0 12.49342 -21.39436 7.987734 13.81583 3.113162 -20.60636 -4.952488 -86.84218 22.76056 16.77308 0 0 -15.95385 0.9549405 5.496729 13.07227
906.1283 106.4374 2987.043 2.945904 -5.329999 28.45616 1.743546 -17.25857 2.715454 -0 42.55496 -0 -5.005871 4.240633 -6.547695 -4.764804 6.748891 -7.645797 -0 12.72746 -0 0.08599776 -17.97348 16.0638 -2.926329 0.4022491 2.327104 2.246191 11.80071 -8.828242 0.4052847 21.68625 6.526656 2.32022 -21.19771 6.563354 2.159665 -18.78303 11.95314 89.7008 24.38912 -18.4133 -0 0 11.53094 -20.52885 8.100489 12.88417 4.014675 -21.79781 -4.969864 -85.74074 22.78945 13.98198 0 0 -18.85693 1.204602 6.140259 12.44707
908.7542 105.6706 2991.348 2.386555 -4.614467 28.95402 1.672157 -23.09869 1.656801 -0 30.70112 -0 -5.393093 1.480884 -6.914884 -4.564678 10.30467 -7.58117 -0 11.30003 -0 -1.03595 -20.20125 14.65148 -2.7097 0.6722998 2.072004 2.732533 10.91127 -9.374478 0.5608467 21.56986 6.671152 2.339816 -21.34643 6.91776 1.372167 -17.99702 11.50277 90.51619 23.63634 -20.2819 -0 0 10.3756 -19.87956 8.188568 11.91824 4.966457 -22.96426 -4.851192 -84.55751 22.56401 11.05287 0 0 -21.99795 1.660541 6.832059 11.59709
911.3887 104.3251 2995.898 2.198129 -3.666909 29.28635 1.089238 -26.33792 0.4009323 -0 19.03659 -0 -5.569596 -0.3778931 -7.197836 -4.767331 12.95283 -7.099677 -0 11.29125 -0 -1.970398 -21.68008 13.35923 -2.826933 0.6121274 2.163686 3.120483 10.23817 -9.755001 0.6787494 21.36273 6.736787 2.359806 -21.52377 7.099542 0.729635 -17.31268 11.19083 91.33711 23.10406 -22.07879 -0 0 8.838043 -19.66571 8.348184 11.28653 5.59727 -24.05592 -4.832227 -83.26703 21.9376 8.412034 0 0 -25.29353 2.139092 7.03861 10.77989
914.1508 102.6964 3000.794 2.246142 -2.627734 29.54478 0.4811212 -27.28552 -0.4758894 -0 9.983177 -0 -5.505177 -0.8831455 -7.427126 -5.224828 14.66153 -6.324468 -0 12.25282 -0 -2.297721 -22.23224 12.56892 -3.100272 0.2357613 2.487472 3.45775 10.02653 -10.08107 0.6308264 20.98093 6.8018 2.405884 -21.86299 7.036437 0.5031063 -16.99739 11.16455 92.0547 23.08873 -23.75173 -0 0 7.216444 -19.80309 8.62605 11.18037 5.771443 -24.96695 -4.993694 -82.12642 21.0692 6.719726 0 0 -28.37621 2.356465 6.496837 10.4498
917.1263 101.0174 3006.088 2.381047 -1.635736 29.82392 0.1518972 -26.77657 -0.7224119 -0 4.07816 -0 -5.190251 -0.1947292 -7.663465 -5.719891 15.62079 -5.420955 -0 13.68435 -0 -2.149221 -22.03826 12.2356 -3.334548 -0.3339865 2.922409 3.726758 10.22364 -10.36594 0.4551978 20.44659 6.842448 2.460639 -22.32627 6.768135 0.649626 -17.05229 11.35978 92.63153 23.41932 -25.20927 -0 0 5.849274 -20.09771 8.977427 11.47402 5.622812 -25.62395 -5.283098 -81.27423 20.17607 6.072587 0 0 -30.93632 2.291273 5.336438 10.69897
920.3496 99.4327 3011.843 2.61185 -0.9491202 30.22888 0.1869564 -25.45417 -0.3082889 -0 1.382255 -0 -4.73866 1.199695 -8.050366 -6.074094 16.3546 -4.579254 -0 15.32916 -0 -1.950771 -21.31629 12.24414 -3.379801 -0.9795109 3.339443 3.789699 10.61069 -10.47242 0.3375627 19.99139 6.714475 2.423321 -22.63414 6.431111 0.8526899 -17.23877 11.55952 93.24615 23.64787 -26.38858 -0 0 4.709386 -20.18565 9.295528 11.66302 5.363664 -26.0056 -5.604333 -80.63197 19.66425 6.002368 0 0 -33.06093 2.186351 4.073847 11.34004
923.781 98.13212 3018.147 2.607886 -0.8731404 30.80957 1.142248 -24.65236 1.034354 -0 2.996172 -0 -4.527548 2.69824 -8.717566 -5.85763 17.77171 -4.347528 -0 17.65223 -0 -2.509228 -20.17345 12.4606 -2.91182 -1.502301 3.391701 3.512469 10.72634 -10.23464 0.5291396 19.90377 6.300474 2.259476 -22.55424 6.25564 0.9386304 -17.02056 11.47891 93.8839 23.70478 -27.07033 -0 0 3.69128 -19.25462 9.572483 10.89384 5.293378 -25.93661 -5.595892 -80.34071 20.25433 6.044987 0 0 -34.39077 2.343367 3.829368 12.04966
927.269 97.53693 3024.945 1.486202 -1.512544 31.31107 4.093435 -25.68562 3.420247 -0 9.655472 -0 -4.958034 3.490324 -9.348077 -4.435216 19.74491 -5.554736 -0 23.29646 -0 -4.629745 -17.91831 12.44316 -1.483035 -1.462879 2.571347 3.144077 10.12371 -9.778578 0.9946798 20.13344 5.823242 2.25032 -22.30862 6.303031 1.586923 -15.85619 11.17819 93.535 24.64423 -26.53497 -0 0 3.358001 -16.97719 10.06072 9.145004 5.419133 -24.75914 -4.908187 -81.25315 22.10985 6.675423 0 0 -32.49342 2.477286 5.560679 12.5845
930.5995 97.82365 3031.72 0.01977995 -2.448787 31.3134 7.104697 -25.44958 4.993024 -0 15.89607 -0 -5.553596 2.405671 -9.182506 -2.744876 19.21436 -7.553451 -0 33.13739 -0 -7.358769 -13.94131 11.76593 0.2278232 -0.8471785 1.679142 2.953872 9.364891 -9.324753 1.310508 20.51903 5.661668 2.506815 -22.07285 6.354399 2.952895 -14.62403 11.08687 91.87539 26.83701 -24.85356 -0 0 4.382983 -15.63635 11.10323 8.288355 4.978653 -22.64109 -4.405141 -83.3401 24.31888 8.735018 0 0 -27.67154 1.300779 8.026592 14.17714
933.7249 98.65629 3038.166 0.07300465 -3.576873 30.83976 7.627165 -21.81818 4.95513 -0 18.12086 -0 -5.571054 -0.1071354 -8.739732 -2.195271 16.16492 -8.501597 -0 43.21969 -0 -8.991421 -10.21359 11.47114 0.9283383 -0.2847937 1.782057 2.648959 9.128971 -8.700875 1.600207 21.28052 5.497622 2.566323 -21.11529 6.443919 3.728203 -14.00409 11.0838 90.61435 28.3124 -23.34044 -0 0 5.396459 -16.16409 12.29737 8.365458 4.149507 -21.12309 -4.467976 -84.70849 25.7798 10.27359 0 0 -24.42284 -0.282721 9.550729 16.0551
936.6627 99.91232 3044.258 1.064171 -4.786042 30.0163 7.07361 -16.23748 4.708425 -0 18.64964 -0 -5.27064 -2.825722 -8.277702 -2.288378 11.61384 -8.380665 -0 52.6628 -0 -9.559326 -7.370119 11.97639 0.8525457 0.1616384 2.626086 2.302049 9.340689 -7.93774 1.893512 22.14407 5.235973 2.498975 -19.79062 6.486895 4.080962 -13.85968 11.19535 89.62191 28.9272 -21.89648 -0 0 6.206862 -17.28402 13.20726 8.677407 3.358738 -20.27037 -4.580505 -85.59862 26.27012 11.30694 0 0 -22.3256 -1.23697 10.14722 16.98823
